<svg xmlns="http://www.w3.org/2000/svg" viewBox="0 0 501 499"><rect width="100%" height="100%" fill="#000000"/><g fill="#FFFFFF"><path d="M229.3 2C171.9 7.6 120 31.2 79.4 70.3 39.9 108.3 15.3 154.4 6 208c-13.4 76.8 10.9 155.6 65.4 211.9 35.4 36.6 78.3 60.9 125.8 71.5 20.2 4.5 31.8 5.8 53.3 5.8 22.6 0 39.6-2 60.4-7.3 34.5-8.6 69.1-26.5 98.1-50.5 8.2-6.8 27-25.8 34.1-34.4 23.4-28.4 40.7-63.6 48.8-99.3 5.2-23 6.5-34.3 6.5-56.2 0-22-1.4-34.7-6.4-56.4-9.7-42.3-31.4-82.5-61.5-113.9-25.6-26.7-51.3-44.6-83.3-58.2-21-8.8-40.8-14.3-63.6-17.5C270.7 1.7 241.2.9 229.3 2M276 25.1c66.8 8 124.9 43.6 162.1 99.3 19 28.3 31.4 61.4 36.4 97 1.9 13.2 1.9 43.1 0 56.4-5.1 35.6-17 67.3-35.8 95.5-10.8 16.1-19 25.9-32.2 38.6-46 43.9-108.9 67.3-169.4 63.1-25.8-1.8-51.9-8.2-75.1-18.2C94.4 427.4 44.1 365.9 29.6 295c-3.7-18.2-4.6-27.4-4.6-46 .1-33.1 6.4-62.5 19.8-91.9C66.1 110.4 97.9 76.4 145 49.8c6.5-3.7 26.2-12.1 35.5-15.1 29.3-9.6 65.3-13.3 95.5-9.6"/><path d="M238.9 100c-17 2-31 8.1-39.7 17.4-12 12.7-13.9 28.5-5.6 45.6 2.9 5.8 5.8 9.6 12.8 16.6 7.5 7.4 29.6 25 38.5 30.6 2.9 1.8 2.6 2.5-1.1 3.3-8 1.7-20.2 6.1-30.3 10.9-29.8 14.3-49.3 38.1-53.6 65.8-1.6 10.3-.6 30.4 2 39.3 7.1 24.3 25.4 44.2 48.6 53 34.1 12.8 75 5.7 100.8-17.7 12.7-11.4 22-25.6 27.3-41.8 2.8-8.2 2.9-9.2 2.8-29 0-20.4 0-20.6-3.2-30-9.5-28.5-29.2-48.8-68.8-71-38.1-21.3-47.8-27.8-54.9-36.4-1.8-2.3-3.9-5.5-4.5-7.1-1.7-4.3-1.5-12.6.3-16 4.3-8.3 15.3-14.4 27.5-15.2 10-.7 17.3.9 27.4 5.9 6.7 3.4 9.9 5.9 19.7 15.8 12.3 12.4 15.5 14.7 22.3 15.6 12.4 1.7 22.8-7.4 22.8-19.7 0-10.3-7.6-19.8-21.1-26.3-16.9-8.1-47.2-12.2-70-9.6m32.5 135c12.9 13.6 20.7 27.3 25.4 45 3.3 12.7 3.8 38.4.8 49.5-4.6 17.7-13.5 29.9-26.4 36.2-7.5 3.7-7.8 3.8-19.1 3.8-10.8 0-12-.2-17.6-2.9-8.9-4.4-18.4-14.4-23.3-24.8-5.8-12.2-7.3-19.1-7.9-36.3-.6-16.4.8-26.3 5.2-38.2 5.1-13.5 16-26.3 27.5-32.1 5.4-2.7 22.6-8 26.6-8.2.6 0 4.6 3.6 8.8 8"/></g></svg>