<?xml version="1.0" standalone="no"?>
<!DOCTYPE svg PUBLIC "-//W3C//DTD SVG 20010904//EN"
 "http://www.w3.org/TR/2001/REC-SVG-20010904/DTD/svg10.dtd">
<svg version="1.0" xmlns="http://www.w3.org/2000/svg"
 width="544.000000pt" height="530.000000pt" viewBox="0 0 544.000000 530.000000"
 preserveAspectRatio="xMidYMid meet">

<g transform="translate(0.000000,530.000000) scale(0.100000,-0.100000)"
fill="#000000" stroke="none">
<path d="M2525 5270 c-355 -26 -689 -116 -1000 -270 -649 -320 -1133 -867
-1356 -1534 -96 -286 -124 -469 -124 -816 0 -290 9 -372 67 -610 143 -593 511
-1130 1026 -1498 509 -365 1131 -544 1749 -503 337 23 626 90 913 214 623 269
1136 778 1397 1386 143 333 206 646 206 1021 0 417 -81 765 -264 1135 -106
217 -227 396 -388 575 -442 493 -1017 798 -1674 885 -141 19 -401 26 -552 15z
m525 -256 c512 -67 968 -286 1369 -659 81 -75 246 -276 324 -395 142 -217 266
-508 322 -756 74 -329 75 -688 4 -1008 -50 -226 -166 -509 -292 -711 -368
-594 -992 -1003 -1694 -1110 -166 -25 -460 -31 -627 -11 -476 55 -919 244
-1289 549 -389 320 -684 801 -791 1289 -42 194 -51 282 -50 503 0 172 4 234
23 340 78 444 241 802 516 1129 296 353 673 605 1120 749 176 57 365 91 605
111 80 7 342 -5 460 -20z"/>
<path d="M2405 3985 c-270 -62 -527 -210 -764 -440 -147 -143 -217 -226 -327
-391 -204 -306 -314 -630 -314 -927 0 -398 166 -637 517 -744 82 -25 101 -27
278 -27 220 -1 296 11 500 78 290 96 536 250 828 518 54 50 99 89 101 87 1 -2
19 -57 39 -121 93 -291 230 -471 402 -524 164 -51 412 -9 613 102 73 40 251
164 236 164 -5 0 -34 -7 -64 -15 -291 -78 -504 37 -651 350 -45 97 -113 297
-154 455 l-27 105 78 130 c105 177 220 401 295 575 68 160 179 485 179 525 l0
25 -231 0 c-131 0 -238 -4 -249 -10 -11 -6 -27 -39 -40 -82 -39 -129 -184
-477 -195 -467 -2 3 -17 41 -34 86 -115 313 -288 489 -540 552 -122 30 -337
29 -476 -4z m286 -171 c122 -36 228 -200 293 -454 31 -120 116 -598 116 -651
0 -24 -153 -256 -258 -389 -99 -126 -308 -333 -402 -399 -169 -119 -304 -166
-460 -159 -79 3 -105 8 -152 31 -148 72 -207 218 -195 481 21 483 336 1170
651 1424 147 118 275 155 407 116z"/>
</g>
</svg>
