<svg xmlns="http://www.w3.org/2000/svg" viewBox="0 0 492 490"><rect width="100%" height="100%" fill="#000000"/><path fill="#000000" d="M0 0h492v490H0zm194 28-2.421.533C181.455 30.802 171.723 34.43 162 38v2l-2.422.23c-4.682 1.007-8.572 2.927-12.828 5.083l-2.655 1.34C124.335 56.867 106.997 70.664 91 86l-2.871 2.71c-6.634 6.419-12.36 13.292-17.896 20.651a484 484 0 0 1-3.315 4.342c-12.503 16.602-22.272 34.804-29.218 54.36a259 259 0 0 1-2.079 5.5C32.301 182.286 30.476 190.828 29 200l-1.125 6.875-.445 2.867C27 212 27 212 26 214c-1.33 9.64-1.285 19.348-1.312 29.063l-.008 2.69c-.005 13.873.89 27.035 3.782 40.643.515 2.492.942 4.982 1.343 7.495 2.127 12.56 6.863 23.77 12.01 35.374 1.134 2.616 2.182 5.252 3.212 7.91 1.856 4.684 4.066 9.064 6.535 13.45l1.314 2.338C62.704 370.169 74.786 386.175 89 400c5 5 5 5 6.852 6.957C117.04 428.955 146.444 445.047 175 455l2.04.712c10.909 3.78 21.53 6.603 32.96 8.288l2.518.38c56.721 8.41 115.002-4.727 161.728-38.552 9.458-7.045 18.524-14.37 26.754-22.828 5-5 5-5 6.852-6.71 7.703-7.312 13.924-15.724 20.148-24.29l1.38-1.9c18.78-26.193 30.685-56.27 36.07-87.931.342-1.966.713-3.927 1.132-5.877 1.943-9.574 1.755-19.244 1.734-28.972-.003-3.05.02-6.098.045-9.148.037-11.478-.833-21.974-3.361-33.172a195 195 0 0 1-.738-4.648c-1.63-10.575-4.54-20.334-8.262-30.352l-.895-2.435C443.943 137.528 427.118 112.042 405 89l-1.472-1.555c-19.269-20.292-43.905-37.232-69.977-47.44a350 350 0 0 1-7.34-3.005c-9.487-3.95-18.822-7.544-28.93-9.547a249 249 0 0 1-4.778-1C260.592 19.607 225.718 20.736 194 28"/><path fill="#000000" d="M264.115 124.696c4.123.019 8.245.02 12.368.024q11.66.017 23.32.064c8.863.034 17.727.05 26.59.065 18.203.031 36.405.086 54.607.151v38l-97 1 15 10c3.778 2.939 7.405 5.86 11 9l1.554 1.334C329.692 199.994 342.517 218.512 348 242l.742 3c3.398 16.383 1.507 33.014-2.742 49l-.805 3.29c-6.166 21.788-25.023 41.968-44.258 53.022-5.823 3.24-11.808 6.08-17.937 8.688l-2.941 1.469c-5.728 2.438-11.956 3.206-18.059 4.218l-2.003.334C241.934 367.97 224.85 368.197 207 364c-1.044-.182-2.088-.364-3.164-.55-27.884-5.19-53.05-24.613-69.364-47.263C129.736 309.15 125.769 301.59 122 294l-1.103-2.194c-11.37-23.892-11.49-57.804-3.897-82.806l1.133-3.8c4.355-13.195 11.162-24.437 19.867-35.2l1.965-2.434C148.65 157.318 159.539 149.81 171 143l3.055-1.84c7.686-4.227 15.7-6.862 24.07-9.41l3.227-.998c20.717-6.03 41.388-6.172 62.763-6.056"/><path fill="#000000" d="M301.258 6.421c2.336.493 4.673.956 7.02 1.395 6.58 1.273 12.427 3.081 18.546 5.813 2.916 1.259 5.857 2.349 8.85 3.405 8.923 3.172 17.09 7.331 25.365 11.912 1.944 1.045 3.914 2.008 5.902 2.964 4.58 2.27 8.769 5.042 12.997 7.902l2.406 1.619C387.739 45.084 392.965 48.86 398 53l2.45 1.93C413.603 65.415 425.445 76.904 436 90l1.537 1.867c15.932 19.438 30.814 42.572 37.806 66.904.72 2.44 1.596 4.764 2.595 7.104 3.52 8.646 6.248 16.95 7.496 26.223.877 6.043 2.032 12.035 3.158 18.036 7.035 37.952 2.126 83.927-13.15 119.495-1.315 3.073-2.413 6.152-3.504 9.308C461.54 366.017 441.29 397.768 419 417h-2l-.605 1.648c-1.973 3.326-4.771 5.534-7.707 7.977l-1.908 1.604A745 745 0 0 1 401 433l-1.608 1.323C371.892 456.756 337.97 475.083 303 482l-6.203 1.3c-4.335.898-8.67 1.79-13.012 2.65l-2.722.541c-7.334 1.219-14.6 1.7-22.028 1.818l-2.845.046c-34.531.454-65.951-3.32-98.19-16.355l-2.46-.922C143.116 466.374 131.31 459.913 120 453l-2.762-1.676C110.182 446.945 103.532 442.125 97 437l-2.91-2.281c-7.352-5.996-14.112-12.535-20.84-19.219l-2.652-2.624C48.077 390.246 30.574 362.699 19 333l-1.492-3.633C1.11 287.957-3.912 239.47 7.258 196.055c.715-2.945 1.257-5.893 1.765-8.88C10.958 175.89 14.436 165.519 19 155q.852-2.184 1.688-4.375C28.97 130.071 39.96 111.171 54 94l2.125-2.703C64.785 80.408 74.245 69.855 85 61l2.703-2.398C102.321 45.695 118.865 35.234 136 26l2.018-1.088C157.415 14.675 179.388 7.54 201 4l2.476-.424c33.146-5.658 64.997-4.183 97.782 2.845M194 28l-2.421.533C181.455 30.802 171.723 34.43 162 38v2l-2.422.23c-4.682 1.007-8.572 2.927-12.828 5.082l-2.655 1.34C124.335 56.868 106.997 70.665 91 86l-2.871 2.71c-6.634 6.419-12.36 13.292-17.896 20.651a484 484 0 0 1-3.315 4.342c-12.503 16.602-22.272 34.804-29.218 54.36a259 259 0 0 1-2.079 5.5C32.301 182.285 30.476 190.827 29 200l-1.125 6.875-.445 2.867C27 212 27 212 26 214c-1.33 9.64-1.285 19.348-1.312 29.062l-.008 2.692c-.005 13.872.89 27.034 3.782 40.642.515 2.492.942 4.982 1.343 7.495 2.127 12.56 6.863 23.77 12.01 35.374 1.134 2.616 2.182 5.252 3.212 7.91 1.856 4.684 4.066 9.064 6.536 13.45l1.313 2.338C62.704 370.169 74.786 386.175 89 400c5 5 5 5 6.852 6.957C117.04 428.955 146.444 445.047 175 455l2.04.712c10.909 3.78 21.53 6.603 32.96 8.288l2.518.38c56.721 8.41 115.002-4.727 161.728-38.552 9.458-7.045 18.524-14.37 26.754-22.828 5-5 5-5 6.852-6.71 7.703-7.312 13.924-15.724 20.148-24.29l1.38-1.9c18.78-26.193 30.685-56.27 36.07-87.931.342-1.966.713-3.927 1.132-5.877 1.943-9.574 1.755-19.244 1.734-28.972-.003-3.05.02-6.098.045-9.148.037-11.478-.833-21.974-3.361-33.172a195 195 0 0 1-.738-4.648c-1.63-10.575-4.54-20.334-8.262-30.352l-.895-2.435C443.943 137.528 427.118 112.042 405 89l-1.472-1.555c-19.269-20.292-43.905-37.232-69.977-47.44a350 350 0 0 1-7.34-3.005c-9.487-3.95-18.822-7.544-28.93-9.547a249 249 0 0 1-4.778-1C260.592 19.607 225.718 20.736 194 28"/><path fill="#000000" d="M233.738 162.695c18.885-1.88 18.885-1.88 25.844 3.004 3.952 3.368 7.213 7.233 10.418 11.301l2.555 2.969C282.816 192.609 289.959 207.61 295 223l.957 2.809c8.925 28.884 6.759 65.486-6.957 92.191-8.201 14.684-19.502 23.518-35.246 29.164-16.225 3.613-32.07 1.24-46.234-7.18C182.044 323.38 168.846 296.877 162 268c-1.285-6.531-1.26-13.044-1.295-19.673q-.017-2.175-.062-4.35c-.451-22.05 6.004-43.326 21.42-59.602 9.723-9.298 19.815-15.117 32.937-18.375l3.75-1.188c4.94-1.234 9.936-1.554 14.988-2.117"/></svg>