<?xml version="1.0" encoding="UTF-8"?>
<svg version="1.1" xmlns="http://www.w3.org/2000/svg" width="492" height="490">
<path d="M0 0 C162.36 0 324.72 0 492 0 C492 161.7 492 323.4 492 490 C329.64 490 167.28 490 0 490 C0 328.3 0 166.6 0 0 Z " fill="#FDFDFD" transform="translate(0,0)"/>
<path d="M0 0 C162.36 0 324.72 0 492 0 C492 161.7 492 323.4 492 490 C329.64 490 167.28 490 0 490 C0 328.3 0 166.6 0 0 Z M194 28 C193.20094238 28.1757959 192.40188477 28.3515918 191.57861328 28.53271484 C181.45526168 30.8016223 171.72319508 34.42967133 162 38 C162 38.66 162 39.32 162 40 C161.20078125 40.07605469 160.4015625 40.15210937 159.578125 40.23046875 C154.89573452 41.23748941 151.00601692 43.15651849 146.75 45.3125 C145.8739209 45.754729 144.9978418 46.19695801 144.09521484 46.65258789 C124.33548734 56.86681967 106.99734557 70.66429521 91 86 C90.05253906 86.89460938 89.10507813 87.78921875 88.12890625 88.7109375 C81.49489631 95.12851875 75.76879473 102.00202695 70.23291016 109.36132812 C69.1381709 110.81635582 68.02907794 112.26055923 66.91796875 113.703125 C54.41546979 130.30522138 44.64642044 148.50666624 37.69970703 168.0625 C37.03399448 169.90586873 36.32854742 171.73474434 35.62109375 173.5625 C32.30031763 182.2857328 30.47603174 190.8281801 29 200 C28.62548312 202.29174567 28.25053392 204.58342077 27.875 206.875 C27.72804688 207.82117188 27.58109375 208.76734375 27.4296875 209.7421875 C27 212 27 212 26 214 C24.6693751 223.63985091 24.71489309 233.3479438 24.6875 243.0625 C24.68488159 243.95061371 24.68226318 244.83872742 24.67956543 245.75375366 C24.67519433 259.62590195 25.56952296 272.78810128 28.46191406 286.39648438 C28.97686848 288.88807869 29.40368502 291.37849245 29.8046875 293.890625 C31.93184595 306.45074155 36.66831936 317.66146767 41.81469727 329.26464844 C42.94850791 331.88117048 43.99746202 334.51693459 45.02734375 337.17578125 C46.88265638 341.85861259 49.0933722 346.23857959 51.5625 350.625 C51.99594727 351.39642334 52.42939453 352.16784668 52.87597656 352.96264648 C62.70392439 370.16860032 74.78653405 386.17541447 89 400 C94 405 94 405 95.8515625 406.95703125 C117.04090995 428.95542651 146.44392049 445.04644268 175 455 C175.67305176 455.23493164 176.34610352 455.46986328 177.03955078 455.71191406 C187.94863291 459.4910661 198.57061265 462.31482453 210 464 C210.83096191 464.12552246 211.66192383 464.25104492 212.51806641 464.38037109 C269.23904226 472.79048245 327.52031184 459.65260734 374.24609375 425.828125 C383.70409389 418.78285443 392.77047536 411.45830837 401 403 C406 398 406 398 407.8515625 396.2890625 C415.55489909 388.97789577 421.7755026 380.56625215 428 372 C428.45552246 371.37319336 428.91104492 370.74638672 429.38037109 370.10058594 C448.15994276 343.90746323 460.06463179 313.82923884 465.45092773 282.16894531 C465.79151175 280.20328036 466.16290593 278.2423679 466.58227539 276.29199219 C468.52452332 266.71770038 468.33666565 257.04807645 468.31567383 247.3203125 C468.31252116 244.2704669 468.33601206 241.22160083 468.36132812 238.171875 C468.39790727 226.69419198 467.5275354 216.1977934 465 205 C464.73690293 203.45331718 464.48733222 201.90415594 464.26171875 200.3515625 C462.63233444 189.77719088 459.72205056 180.01819075 456 170 C455.70464355 169.1965918 455.40928711 168.39318359 455.10498047 167.56542969 C443.94309054 137.52829294 427.11809041 112.04236435 405 89 C404.51418457 88.48695312 404.02836914 87.97390625 403.52783203 87.4453125 C384.25924548 67.1531024 359.62319129 50.21289303 333.55053711 40.00439453 C331.08924703 39.03514523 328.64935221 38.02525109 326.2109375 37 C316.72361441 33.04970007 307.38886154 29.45646395 297.28173828 27.453125 C295.68562747 27.13615714 294.09300782 26.80132383 292.50341797 26.453125 C260.59181928 19.6070781 225.717813 20.73642011 194 28 Z " fill="#FDFDFD" transform="translate(0,0)"/>
<path d="M0 0 C4.12253696 0.01901094 8.24508362 0.02053615 12.36765766 0.02407622 C20.14085848 0.03332613 27.91392969 0.05784216 35.68707395 0.08812469 C44.55071225 0.12189116 53.41435741 0.13821009 62.27804422 0.153211 C80.48034628 0.18439981 98.68247111 0.2393212 116.88468647 0.30418181 C116.88468647 12.84418181 116.88468647 25.38418181 116.88468647 38.30418181 C68.86968647 38.79918181 68.86968647 38.79918181 19.88468647 39.30418181 C24.83468647 42.60418181 29.78468647 45.90418181 34.88468647 49.30418181 C38.66296188 52.24284047 42.28937358 55.16468494 45.88468647 58.30418181 C46.65377338 58.96474578 46.65377338 58.96474578 47.43839741 59.63865447 C65.57656289 75.29848202 78.40178925 93.81647133 83.88468647 117.30418181 C84.12960835 118.29418181 84.37453022 119.28418181 84.62687397 120.30418181 C88.02448278 136.68717222 86.13382378 153.31786303 81.88468647 169.30418181 C81.6191396 170.38957244 81.35359272 171.47496306 81.07999897 172.59324431 C74.91336977 194.38200082 56.05654941 214.56169836 36.82218647 225.61668181 C30.99835642 228.85551369 25.01413683 231.69570895 18.88468647 234.30418181 C17.91402241 234.78886931 16.94335835 235.27355681 15.94328022 235.77293181 C10.215649 238.21086248 3.98785526 238.97921697 -2.11531353 239.99168181 C-2.77638103 240.10157439 -3.43744854 240.21146697 -4.11854839 240.32468963 C-22.18117283 243.27537706 -39.26519318 243.50073329 -57.11531353 239.30418181 C-58.15945415 239.122424 -59.20359478 238.94066619 -60.27937603 238.75340056 C-88.16347916 233.5648396 -113.33017443 214.14161038 -129.64363384 191.49070525 C-134.37977879 184.45405725 -138.34656124 176.89416269 -142.11531353 169.30418181 C-142.66107037 168.21822722 -142.66107037 168.21822722 -143.21785259 167.11033416 C-154.58875882 143.21859468 -154.70807056 109.30578061 -147.11531353 84.30418181 C-146.7414854 83.049924 -146.36765728 81.79566619 -145.98250103 80.50340056 C-141.62766329 67.30910741 -134.81991908 56.06761581 -126.11531353 45.30418181 C-125.46691509 44.50109588 -124.81851665 43.69800994 -124.15046978 42.87058806 C-115.46492417 32.62199949 -104.57616479 25.11448574 -93.11531353 18.30418181 C-92.10726665 17.69703338 -91.09921978 17.08988494 -90.06062603 16.46433806 C-82.37391281 12.23760424 -74.35968432 9.60204328 -65.99031353 7.05418181 C-64.92530621 6.72474578 -63.86029888 6.39530974 -62.76301861 6.0558908 C-42.04656199 0.02611765 -21.37541192 -0.11554401 0 0 Z " fill="#030303" transform="translate(264.11531352996826,124.69581818580627)"/>
<path d="M0 0 C2.33571998 0.49293467 4.67278651 0.9557765 7.01904297 1.39501953 C13.59881867 2.66735185 19.44623799 4.47595376 25.56591797 7.20751953 C28.48137908 8.46622415 31.42260525 9.55616785 34.41601562 10.61303711 C43.3386289 13.78453596 51.5064652 17.9440552 59.78051758 22.52416992 C61.72451679 23.56937503 63.69422286 24.53225028 65.68310547 25.48876953 C70.26236263 27.75772048 74.4513798 30.53097205 78.67919922 33.39111328 C79.47334229 33.92518799 80.26748535 34.4592627 81.08569336 35.00952148 C86.48078554 38.66300891 91.70713022 42.43929269 96.74169922 46.57861328 C97.54994141 47.21541016 98.35818359 47.85220703 99.19091797 48.50830078 C112.34590904 58.9938849 124.1877281 70.48239411 134.74169922 83.57861328 C135.24878418 84.19478516 135.75586914 84.81095703 136.27832031 85.44580078 C152.21046081 104.8837064 167.09301113 128.0178476 174.08496094 152.34936523 C174.80410232 154.79043587 175.6806248 157.11360628 176.67919922 159.45361328 C180.1995367 168.09934632 182.92769369 176.40357215 184.17529297 185.67626953 C185.05250053 191.71992711 186.20773957 197.71127905 187.33349609 203.71289062 C194.36834313 241.66439648 189.45949336 287.63918782 174.18310547 323.20751953 C172.86912564 326.2805943 171.77020915 329.35923663 170.67919922 332.51611328 C160.28179855 359.59616003 140.03148862 391.34687426 117.74169922 410.57861328 C117.08169922 410.57861328 116.42169922 410.57861328 115.74169922 410.57861328 C115.54189453 411.12259766 115.34208984 411.66658203 115.13623047 412.22705078 C113.16400333 415.55276714 110.36567399 417.76022386 107.42919922 420.20361328 C106.79965332 420.732854 106.17010742 421.26209473 105.52148438 421.80737305 C103.60380963 423.40896077 101.67538779 424.99641263 99.74169922 426.57861328 C99.21108887 427.01512207 98.68047852 427.45163086 98.13378906 427.90136719 C70.63358248 450.33504203 36.71120807 468.66165046 1.74169922 475.57861328 C-0.32621958 476.01120214 -2.39390787 476.44489369 -4.46142578 476.87939453 C-8.79588834 477.77631011 -13.13118014 478.66790758 -17.47314453 479.52783203 C-18.82073853 479.79599731 -18.82073853 479.79599731 -20.19555664 480.06958008 C-27.52890648 481.2883951 -34.79571655 481.76880924 -42.22314453 481.88720703 C-43.16202011 481.90242401 -44.10089569 481.91764099 -45.06822205 481.93331909 C-79.59927225 482.38800895 -111.01945203 478.61318825 -143.25830078 465.57861328 C-144.07041016 465.27439453 -144.88251953 464.97017578 -145.71923828 464.65673828 C-158.14091448 459.95218318 -169.94687618 453.49202944 -181.25830078 446.57861328 C-182.16966797 446.02560547 -183.08103516 445.47259766 -184.02001953 444.90283203 C-191.07635898 440.52407645 -197.72673097 435.70402348 -204.25830078 430.57861328 C-205.21865234 429.82580078 -206.17900391 429.07298828 -207.16845703 428.29736328 C-214.52049487 422.301895 -221.27985996 415.7629081 -228.00830078 409.07861328 C-228.88349365 408.21268555 -229.75868652 407.34675781 -230.66040039 406.45458984 C-253.18165666 383.82474096 -270.68428367 356.27715477 -282.25830078 326.57861328 C-282.75072266 325.37978516 -283.24314453 324.18095703 -283.75048828 322.94580078 C-300.14785144 281.53551077 -305.17076007 233.04765609 -294.00048828 189.63330078 C-293.28500698 186.68853036 -292.74316552 183.74078708 -292.23486328 180.75415039 C-290.29996713 169.46859984 -286.82228417 159.0966882 -282.25830078 148.57861328 C-281.69032853 147.12240249 -281.12735412 145.66422642 -280.57080078 144.20361328 C-272.2871997 123.64915538 -261.29867852 104.74961578 -247.25830078 87.57861328 C-246.55705078 86.68658203 -245.85580078 85.79455078 -245.13330078 84.87548828 C-236.4732138 73.98670244 -227.01322684 63.43323285 -216.25830078 54.57861328 C-215.36626953 53.78712891 -214.47423828 52.99564453 -213.55517578 52.18017578 C-198.93686022 39.27319217 -182.39373982 28.81229528 -165.25830078 19.57861328 C-164.25959961 19.04010742 -164.25959961 19.04010742 -163.24072266 18.49072266 C-143.84327349 8.25372375 -121.87005312 1.11891334 -100.25830078 -2.42138672 C-99.03264404 -2.63118164 -99.03264404 -2.63118164 -97.78222656 -2.84521484 C-64.63595911 -8.5038695 -32.78573072 -7.02817793 0 0 Z M-107.25830078 21.57861328 C-108.0573584 21.75440918 -108.85641602 21.93020508 -109.6796875 22.11132812 C-119.8030391 24.38023558 -129.5351057 28.00828461 -139.25830078 31.57861328 C-139.25830078 32.23861328 -139.25830078 32.89861328 -139.25830078 33.57861328 C-140.05751953 33.65466797 -140.85673828 33.73072266 -141.68017578 33.80908203 C-146.36256626 34.81610269 -150.25228386 36.73513177 -154.50830078 38.89111328 C-155.38437988 39.33334229 -156.26045898 39.77557129 -157.16308594 40.23120117 C-176.92281344 50.44543295 -194.26095521 64.24290849 -210.25830078 79.57861328 C-211.20576172 80.47322266 -212.15322266 81.36783203 -213.12939453 82.28955078 C-219.76340447 88.70713203 -225.48950605 95.58064023 -231.02539062 102.93994141 C-232.12012988 104.3949691 -233.22922285 105.83917251 -234.34033203 107.28173828 C-246.84283099 123.88383466 -256.61188034 142.08527952 -263.55859375 161.64111328 C-264.2243063 163.48448201 -264.92975336 165.31335762 -265.63720703 167.14111328 C-268.95798316 175.86434609 -270.78226904 184.40679339 -272.25830078 193.57861328 C-272.63281766 195.87035895 -273.00776686 198.16203405 -273.38330078 200.45361328 C-273.53025391 201.39978516 -273.67720703 202.34595703 -273.82861328 203.32080078 C-274.25830078 205.57861328 -274.25830078 205.57861328 -275.25830078 207.57861328 C-276.58892568 217.21846419 -276.54340769 226.92655708 -276.57080078 236.64111328 C-276.57341919 237.52922699 -276.5760376 238.4173407 -276.57873535 239.33236694 C-276.58310645 253.20451524 -275.68877782 266.36671456 -272.79638672 279.97509766 C-272.2814323 282.46669197 -271.85461576 284.95710573 -271.45361328 287.46923828 C-269.32645483 300.02935483 -264.58998143 311.24008095 -259.44360352 322.84326172 C-258.30979287 325.45978376 -257.26083876 328.09554787 -256.23095703 330.75439453 C-254.3756444 335.43722588 -252.16492858 339.81719287 -249.69580078 344.20361328 C-249.26235352 344.97503662 -248.82890625 345.74645996 -248.38232422 346.54125977 C-238.55437639 363.7472136 -226.47176674 379.75402775 -212.25830078 393.57861328 C-207.25830078 398.57861328 -207.25830078 398.57861328 -205.40673828 400.53564453 C-184.21739083 422.53403979 -154.81438029 438.62505596 -126.25830078 448.57861328 C-125.58524902 448.81354492 -124.91219727 449.04847656 -124.21875 449.29052734 C-113.30966787 453.06967938 -102.68768813 455.89343781 -91.25830078 457.57861328 C-90.42733887 457.70413574 -89.59637695 457.8296582 -88.74023438 457.95898438 C-32.01925852 466.36909573 26.26201106 453.23122063 72.98779297 419.40673828 C82.44579311 412.36146771 91.51217458 405.03692165 99.74169922 396.57861328 C104.74169922 391.57861328 104.74169922 391.57861328 106.59326172 389.86767578 C114.29659831 382.55650905 120.51720182 374.14486543 126.74169922 365.57861328 C127.19722168 364.95180664 127.65274414 364.325 128.12207031 363.67919922 C146.90164198 337.48607651 158.80633101 307.40785212 164.19262695 275.74755859 C164.53321097 273.78189364 164.90460515 271.82098118 165.32397461 269.87060547 C167.26622254 260.29631366 167.07836486 250.62668973 167.05737305 240.89892578 C167.05422038 237.84908018 167.07771128 234.80021411 167.10302734 231.75048828 C167.13960649 220.27280526 166.26923462 209.77640668 163.74169922 198.57861328 C163.47860215 197.03193046 163.22903144 195.48276922 163.00341797 193.93017578 C161.37403366 183.35580416 158.46374978 173.59680404 154.74169922 163.57861328 C154.44634277 162.77520508 154.15098633 161.97179687 153.84667969 161.14404297 C142.68478976 131.10690622 125.85978962 105.62097763 103.74169922 82.57861328 C103.25588379 82.06556641 102.77006836 81.55251953 102.26953125 81.02392578 C83.0009447 60.73171568 58.36489051 43.79150631 32.29223633 33.58300781 C29.83094624 32.61375852 27.39105143 31.60386437 24.95263672 30.57861328 C15.46531363 26.62831335 6.13056076 23.03507723 -3.9765625 21.03173828 C-5.57267331 20.71477042 -7.16529296 20.37993712 -8.75488281 20.03173828 C-40.6664815 13.18569138 -75.54048778 14.31503339 -107.25830078 21.57861328 Z " fill="#050505" transform="translate(301.25830078125,6.42138671875)"/>
<path d="M0 0 C18.8849245 -1.87915304 18.8849245 -1.87915304 25.84375 3.00415039 C29.79621589 6.37228403 33.05702315 10.23669531 36.26171875 14.30493164 C37.10476563 15.28461914 37.9478125 16.26430664 38.81640625 17.27368164 C49.07815036 29.91444601 56.22116632 44.91533801 61.26171875 60.30493164 C61.73544922 61.69518555 61.73544922 61.69518555 62.21875 63.11352539 C71.14360012 91.99838513 68.97772968 128.60013852 55.26171875 155.30493164 C47.06027524 169.98845367 35.75949969 178.82317626 20.015625 184.46899414 C3.79047459 188.08208695 -12.05450061 185.70847554 -26.21875 177.28930664 C-51.69432289 160.68389219 -64.89233125 134.18227691 -71.73828125 105.30493164 C-73.02306331 98.77390896 -72.99734075 92.26094251 -73.03344727 85.63208008 C-73.04486312 84.1817847 -73.06514615 82.73152776 -73.0949707 81.28149414 C-73.54676961 59.23168832 -67.09143807 37.95578664 -51.67578125 21.67993164 C-41.95240852 12.38220587 -31.86024265 6.56279792 -18.73828125 3.30493164 C-17.50078125 2.91305664 -16.26328125 2.52118164 -14.98828125 2.11743164 C-10.04878027 0.88255639 -5.05187276 0.56257035 0 0 Z " fill="#FDFDFD" transform="translate(233.73828125,162.695068359375)"/>
</svg>
